<svg xmlns="http://www.w3.org/2000/svg" width="32" height="32" viewBox="0 0 32 32">
    <g fill="none" fill-rule="evenodd">
        <path d="M0 0H32V32H0z"/>
        <path fill="#FFF" d="M8.378 7.084l5.175 19.314c.134.497-.126 1.005-.594 1.19l-.112.037c-.533.143-1.08-.165-1.225-.71L6.447 7.603c-.134-.497.126-1.005.594-1.19l.112-.037c.533-.143 1.08.165 1.225.71zM21.882 7c1.878 0 2.79 1.622 1.84 3.239l-1.386 2.36 2.94 3.246C26.6 17.31 25.842 19 23.868 19h-10.21c-.452 0-.848-.304-.966-.741l-2.68-10c-.17-.635.31-1.259.967-1.259h10.902zm.211 1.994l-.21.006h-9.6l2.144 8h9.196l-3.263-3.604c-.293-.324-.342-.8-.12-1.178l1.757-2.992c.114-.194.168-.23.096-.232z" opacity=".8"/>
    </g>
</svg>
